<?xml version="1.0" standalone="no"?><!DOCTYPE svg PUBLIC "-//W3C//DTD SVG 1.1//EN" "http://www.w3.org/Graphics/SVG/1.1/DTD/svg11.dtd"><svg t="1672986253969" class="icon" viewBox="0 0 1024 1024" version="1.1" xmlns="http://www.w3.org/2000/svg" p-id="5115" xmlns:xlink="http://www.w3.org/1999/xlink" width="200" height="200"><path d="M128 512a42.666667 42.666667 0 0 1 42.666667-42.666667h661.333333a42.666667 42.666667 0 1 1 0 85.333334H170.666667a42.666667 42.666667 0 0 1-42.666667-42.666667z" fill="#DDDDDD" p-id="5116"></path><path d="M567.168 819.498667a42.666667 42.666667 0 0 1 0-60.330667L814.336 512l-247.168-247.168a42.666667 42.666667 0 0 1 60.330667-60.330667l247.168 247.168a85.333333 85.333333 0 0 1 0 120.661334l-247.168 247.168a42.666667 42.666667 0 0 1-60.330667 0z" fill="#DDDDDD" p-id="5117"></path></svg>
